<svg width="298" height="293" viewBox="0 0 298 293" fill="none" xmlns="http://www.w3.org/2000/svg">
<g filter="url(#filter0_d_0_1)">
<mask id="mask0_0_1" style="mask-type:alpha" maskUnits="userSpaceOnUse" x="14" y="14" width="135" height="265">
<rect x="14" y="14" width="135" height="265" fill="#D9D9D9"/>
</mask>
<g mask="url(#mask0_0_1)">
<path fill-rule="evenodd" clip-rule="evenodd" d="M114.619 90.8843L114.069 91.0165C113.276 91.2807 112.527 91.4348 111.845 91.4788C111.096 91.5229 110.392 91.4788 109.731 91.3467C107.838 90.9724 105.019 89.211 101.981 87.3176C98.5904 85.2039 94.9575 82.9581 91.1045 81.6591C88.5065 80.7784 79.4353 80.184 70.8046 80.0078C60.9848 79.7876 51.2312 80.6243 50.2404 82.6059C49.4698 84.125 48.9854 86.0846 49.1616 88.2643C49.2937 90.0037 49.8441 91.8751 50.967 93.7686C53.543 98.106 58.1887 101.321 62.5921 104.337C67.0616 107.397 71.1568 110.216 70.4743 112.329C70.4303 112.505 69.9899 112.88 69.3294 113.408C68.3606 114.179 66.9515 115.081 65.4764 115.984C59.5537 119.595 54.9301 123.426 51.011 127.939C47.136 132.409 43.9215 137.517 40.773 143.792C39.8483 145.619 38.9676 147.491 38.1309 149.428C37.2282 151.498 36.3695 153.59 35.5549 155.703L35.3788 156.386C34.8944 159.27 34.2559 161.472 33.3972 162.815C32.9789 163.475 32.5826 163.806 32.2083 163.806L32.0982 163.784H27.4745C26.726 163.784 26.1315 163.74 25.6031 163.718C21.1996 163.409 18.7337 163.255 16.1577 169.86C14.3743 174.44 13.7798 180.825 14.044 187.188C14.3302 194.035 15.5852 201.015 17.4127 205.793C18.0732 208.941 19.5043 211.451 21.728 213.3C23.9518 215.128 26.8581 216.229 30.4909 216.515L30.7771 216.537H35.9292C38.175 216.537 40.1345 216.449 41.5876 216.405C42.9747 216.361 43.2609 216.163 43.4371 216.251C43.7013 216.383 43.371 216.405 43.7453 216.889C44.67 218.166 46.1452 220.192 49.2496 223.406C51.4734 225.696 54.0494 228.228 56.5154 230.562C58.8051 232.72 61.095 234.767 62.9884 236.353L64.1553 237.321C66.291 239.083 67.3258 239.941 67.3699 240.206C67.4579 240.712 66.8194 242.253 65.5645 245.27C65.036 246.547 64.7058 247.317 64.5957 247.603C63.3407 250.686 62.0857 253.68 60.9408 256.3C59.0253 260.726 56.9117 265.393 56.2291 266.935L56.1631 267.089C54.5998 271.052 54.9521 274.068 57.1318 276.226C58.9813 278.053 61.9096 278.758 65.8727 278.45H84.4333C87.0313 278.626 89.4972 278.075 91.8091 276.754C94.0108 275.499 96.0144 273.606 97.8198 271.074L97.9959 270.788C98.6784 269.599 99.383 268.035 100.132 266.362C101.959 262.311 104.205 257.269 106.032 257.996C118.626 262.905 130.934 265.834 144.254 266.274C157.421 266.714 171.512 264.733 187.782 259.801C192.45 259.14 193.397 261.122 194.894 264.248C195.312 265.129 195.753 266.076 196.369 267.243C196.743 268.013 196.876 268.322 197.03 268.608C199.187 273.209 201.257 277.657 207.708 278.956L208.413 279.022L232.389 278.846H232.632C234.107 278.736 235.406 278.406 236.551 277.789C237.872 277.107 238.884 276.116 239.611 274.795C241.747 270.898 240.316 267.947 238.862 264.975H238.884C238.642 264.469 238.378 263.94 238.312 263.808L238.29 263.786L229.857 245.336L229.703 245.027C228.823 243.508 228.492 242.253 228.69 241.284C228.889 240.338 229.593 239.413 230.76 238.51C232.433 237.321 234.063 236.088 235.626 234.833C237.255 233.534 238.796 232.191 240.294 230.826C245.247 226.291 249.827 220.962 253.746 215.106C257.511 209.491 260.682 203.371 262.971 196.986C264.755 191.988 266.01 186.858 266.626 181.706C266.758 180.517 266.868 179.306 266.935 178.117C274.707 174.374 280.189 167.703 282.831 158.896C285.495 149.935 285.165 138.794 281.202 126.376L274.464 128.534C277.987 139.521 278.317 149.23 276.05 156.87C274.354 162.507 271.206 167.02 266.824 170.036C266.736 168.98 266.604 167.901 266.45 166.844C264.777 155.307 260.307 144.562 253.922 135.029C222.988 88.9688 164.862 82.8701 114.619 90.8843Z" fill="#FF8985"/>
<path fill-rule="evenodd" clip-rule="evenodd" d="M76.2429 151.168C73.0724 151.168 70.2101 152.445 68.1405 154.514C66.0709 156.584 64.7939 159.446 64.7939 162.617C64.7939 165.787 66.0709 168.649 68.1405 170.719C70.2101 172.789 73.0724 174.066 76.2429 174.066C79.3913 174.066 82.2536 172.789 84.3232 170.719C86.4809 168.583 87.6698 165.677 87.6698 162.639C87.6698 159.468 86.3928 156.606 84.3232 154.536C82.1875 152.379 79.3033 151.168 76.2429 151.168ZM194.52 122.303C197.69 123.382 201.125 121.709 202.204 118.56C203.283 115.39 201.609 111.955 198.461 110.876C184.898 106.186 171.159 104.007 157.31 104.073C143.484 104.161 129.569 106.473 115.632 110.81C112.439 111.801 110.634 115.191 111.625 118.384C112.615 121.576 116.006 123.382 119.199 122.391C132.079 118.406 144.805 116.248 157.377 116.182C169.882 116.094 182.3 118.076 194.52 122.303Z" fill="#BC5050"/>
<path fill-rule="evenodd" clip-rule="evenodd" d="M156.958 14C130.361 14 108.806 35.5549 108.806 62.1518C108.806 88.7487 130.361 110.304 156.958 110.304C183.555 110.304 205.11 88.7487 205.11 62.1518C205.11 35.5549 183.555 14 156.958 14ZM156.958 27.0783C137.583 27.0783 121.885 42.7766 121.885 62.1518C121.885 81.527 137.583 97.2253 156.958 97.2253C176.333 97.2253 192.032 81.527 192.032 62.1518C192.032 42.7766 176.311 27.0783 156.958 27.0783Z" fill="#FAC900"/>
<path fill-rule="evenodd" clip-rule="evenodd" d="M156.958 27.0783C137.583 27.0783 121.885 42.7766 121.885 62.1518C121.885 81.527 137.583 97.2253 156.958 97.2253C176.333 97.2253 192.032 81.527 192.032 62.1518C192.032 42.7766 176.311 27.0783 156.958 27.0783Z" fill="#FFED33"/>
</g>
</g>
<g filter="url(#filter1_ddd_0_1)">
<mask id="mask1_0_1" style="mask-type:alpha" maskUnits="userSpaceOnUse" x="148" y="14" width="139" height="265">
<rect x="148.624" y="14" width="138.376" height="265" fill="#D9D9D9"/>
</mask>
<g mask="url(#mask1_0_1)">
<path d="M155.542 272.375C155.542 274.132 154.814 275.817 153.516 277.06C152.218 278.302 150.459 279 148.624 279V265.75C150.459 265.75 152.218 266.448 153.516 267.69C154.814 268.933 155.542 270.618 155.542 272.375Z" fill="#0F5094"/>
<path d="M273.162 67C276.984 67 280.081 64.0339 280.081 60.375C280.081 56.7161 276.984 53.75 273.162 53.75C269.341 53.75 266.244 56.7161 266.244 60.375C266.244 64.0339 269.341 67 273.162 67Z" fill="#0883D9"/>
<path d="M148.624 272.375L151.578 278.384C151.578 278.384 256.357 226.046 276.67 146.5H148.624V272.375Z" fill="#0F5094"/>
<path d="M280.081 60.375L273.162 53.75C196.211 53.75 195.132 14 148.624 14V146.5H276.67C278.85 137.967 280.081 129.129 280.081 120V60.375Z" fill="#0883D9"/>
<path d="M148.624 272.375L145.669 278.384C145.669 278.384 40.8907 226.046 20.577 146.5H148.624V272.375Z" fill="#0370C8"/>
</g>
</g>
<defs>
<filter id="filter0_d_0_1" x="0" y="0" width="163" height="293" filterUnits="userSpaceOnUse" color-interpolation-filters="sRGB">
<feFlood flood-opacity="0" result="BackgroundImageFix"/>
<feColorMatrix in="SourceAlpha" type="matrix" values="0 0 0 0 0 0 0 0 0 0 0 0 0 0 0 0 0 0 127 0" result="hardAlpha"/>
<feOffset/>
<feGaussianBlur stdDeviation="7"/>
<feComposite in2="hardAlpha" operator="out"/>
<feColorMatrix type="matrix" values="0 0 0 0 0 0 0 0 0 0 0 0 0 0 0 0 0 0 0.25 0"/>
<feBlend mode="normal" in2="BackgroundImageFix" result="effect1_dropShadow_0_1"/>
<feBlend mode="normal" in="SourceGraphic" in2="effect1_dropShadow_0_1" result="shape"/>
</filter>
<filter id="filter1_ddd_0_1" x="135.624" y="3" width="162.376" height="287" filterUnits="userSpaceOnUse" color-interpolation-filters="sRGB">
<feFlood flood-opacity="0" result="BackgroundImageFix"/>
<feColorMatrix in="SourceAlpha" type="matrix" values="0 0 0 0 0 0 0 0 0 0 0 0 0 0 0 0 0 0 127 0" result="hardAlpha"/>
<feOffset/>
<feGaussianBlur stdDeviation="5.5"/>
<feComposite in2="hardAlpha" operator="out"/>
<feColorMatrix type="matrix" values="0 0 0 0 0 0 0 0 0 0 0 0 0 0 0 0 0 0 0.25 0"/>
<feBlend mode="normal" in2="BackgroundImageFix" result="effect1_dropShadow_0_1"/>
<feColorMatrix in="SourceAlpha" type="matrix" values="0 0 0 0 0 0 0 0 0 0 0 0 0 0 0 0 0 0 127 0" result="hardAlpha"/>
<feOffset dx="-5"/>
<feGaussianBlur stdDeviation="4"/>
<feComposite in2="hardAlpha" operator="out"/>
<feColorMatrix type="matrix" values="0 0 0 0 0 0 0 0 0 0 0 0 0 0 0 0 0 0 0.25 0"/>
<feBlend mode="normal" in2="effect1_dropShadow_0_1" result="effect2_dropShadow_0_1"/>
<feColorMatrix in="SourceAlpha" type="matrix" values="0 0 0 0 0 0 0 0 0 0 0 0 0 0 0 0 0 0 127 0" result="hardAlpha"/>
<feOffset dy="4"/>
<feGaussianBlur stdDeviation="2"/>
<feComposite in2="hardAlpha" operator="out"/>
<feColorMatrix type="matrix" values="0 0 0 0 0 0 0 0 0 0 0 0 0 0 0 0 0 0 0.25 0"/>
<feBlend mode="normal" in2="effect2_dropShadow_0_1" result="effect3_dropShadow_0_1"/>
<feBlend mode="normal" in="SourceGraphic" in2="effect3_dropShadow_0_1" result="shape"/>
</filter>
</defs>
</svg>
